<!DOCTYPE svg PUBLIC "-//W3C//DTD SVG 1.1//EN" "http://www.w3.org/Graphics/SVG/1.1/DTD/svg11.dtd">
<!-- Uploaded to: SVG Repo, www.svgrepo.com, Transformed by: SVG Repo Mixer Tools -->
<svg version="1.1" id="Icons" xmlns="http://www.w3.org/2000/svg" xmlns:xlink="http://www.w3.org/1999/xlink" viewBox="0 0 32 32" xml:space="preserve" width="64px" height="64px" fill="#FFD700" stroke="#FFD700">
<g id="SVGRepo_bgCarrier" stroke-width="0"/>
<g id="SVGRepo_tracerCarrier" stroke-linecap="round" stroke-linejoin="round" stroke="#fdf7bf" stroke-width="3.4560000000000004"> <style type="text/css"> .st0{fill:none;stroke:#000000;stroke-width:2;stroke-linecap:round;stroke-linejoin:round;stroke-miterlimit:10;} </style> <path d="M29.9,28.6l-13-26c-0.3-0.7-1.4-0.7-1.8,0l-13,26c-0.2,0.4-0.1,0.8,0.2,1.1C2.5,30,3,30.1,3.4,29.9L16,25.1l12.6,4.9 c0.1,0,0.2,0.1,0.4,0.1c0.3,0,0.5-0.1,0.7-0.3C30,29.4,30.1,28.9,29.9,28.6z"/> </g>
<g id="SVGRepo_iconCarrier"> <style type="text/css"> .st0{fill:none;stroke:#000000;stroke-width:2;stroke-linecap:round;stroke-linejoin:round;stroke-miterlimit:10;} </style> <path d="M29.9,28.6l-13-26c-0.3-0.7-1.4-0.7-1.8,0l-13,26c-0.2,0.4-0.1,0.8,0.2,1.1C2.5,30,3,30.1,3.4,29.9L16,25.1l12.6,4.9 c0.1,0,0.2,0.1,0.4,0.1c0.3,0,0.5-0.1,0.7-0.3C30,29.4,30.1,28.9,29.9,28.6z"/> </g>
</svg>